HIERARCHY
ROOT pelvis
{
  OFFSET 0 100 0
  CHANNELS 6 Xposition Yposition Zposition Zrotation Xrotation Yrotation
  JOINT pelvis_right_femur
  {
    OFFSET -10.78128 -3.44521 -0.5502486
    CHANNELS 3 Zrotation Xrotation Yrotation
    JOINT right_femur_tibia
    {
      OFFSET -0.8047443 -44.0398 -0.1307829
      CHANNELS 3 Zrotation Xrotation Yrotation
      JOINT right_tibia_foot
      {
        OFFSET 3.006224 -47.83518 -5
        CHANNELS 3 Zrotation Xrotation Yrotation
        End Site
        {
          OFFSET 0 -5 15
        }
      }
    }
  }
  JOINT pelvis_left_femur
  {
    OFFSET 10.78128 -3.44521 -0.5502486
    CHANNELS 3 Zrotation Xrotation Yrotation
    JOINT left_femur_tibia
    {
      OFFSET 0.8047443 -44.0398 -0.1307829
      CHANNELS 3 Zrotation Xrotation Yrotation
      JOINT left_tibia_foot
      {
        OFFSET -4.370144 -48.10324 -4.275266
        CHANNELS 3 Zrotation Xrotation Yrotation
        End Site
        {
          OFFSET 0 -5 15
        }
      }
    }
  }
  JOINT pelvis_spine1
  {
    OFFSET 0 6.468898 -3.129235
    CHANNELS 3 Zrotation Xrotation Yrotation
    JOINT spine1
    {
      OFFSET 0 23.15396 4.99043
      CHANNELS 3 Zrotation Xrotation Yrotation
      JOINT spine2
      {
        OFFSET 0 20.79997 -5.064912
        CHANNELS 3 Zrotation Xrotation Yrotation
        JOINT neck
        {
          OFFSET 0 14.38658 9.616178
          CHANNELS 3 Zrotation Xrotation Yrotation
          End Site
          {
            OFFSET 0 20 0
          }
        }
      }
      JOINT right_manubrium
      {
        OFFSET -5.722621 16.35077 3.967754
        CHANNELS 3 Zrotation Xrotation Yrotation
        JOINT right_clavicle
        {
          OFFSET -13.16364 1.694482 -4.693211
          CHANNELS 3 Zrotation Xrotation Yrotation
          JOINT right_humerus
          {
            OFFSET -28.5034 -0.3100689 -2.792744
            CHANNELS 3 Zrotation Xrotation Yrotation
            JOINT right_radius
            {
              OFFSET -25.15693 0.02248979 -1.271978
              CHANNELS 3 Zrotation Xrotation Yrotation
              End Site
              {
                OFFSET -15 0 0
              }
            }
          }
        }
      }
      JOINT left_manubrium
      {
        OFFSET 5.722621 16.35077 3.967754
        CHANNELS 3 Zrotation Xrotation Yrotation
        JOINT left_clavicle
        {
          OFFSET 13.16364 1.694482 -4.693211
          CHANNELS 3 Zrotation Xrotation Yrotation
          JOINT left_humerus
          {
            OFFSET 29.39168 -1.063119 -2.237045
            CHANNELS 3 Zrotation Xrotation Yrotation
            JOINT left_radius
            {
              OFFSET 24.59957 -0.9528479 0.9047498
              CHANNELS 3 Zrotation Xrotation Yrotation
              End Site
              {
                OFFSET 15 -0 -0
              }
            }
          }
        }
      }
    }
  }
}
MOTION
Frames: 16
Frame Time: 0.0416666666667
0 103.5113 0 1.81487 -1.169355 -0.2094023 2.425887 -10.51873 9.450718 -2.712879e-06 34.91291 2.218003e-06 -5.289973 -18.64783 -3.302338 -7.673428 9.075422 -23.70183 -1.931577e-06 5.67289 -8.960441e-06 9.180739 -16.29775 28.78793 -4.733931 -4.962796 5.307684 2.432334 9.196612 -7.73277 1.270824 22.5024 6.558605 3.234962 -23.58344 8.668269 6.564803 -20.25325 11.52995 85.31468 36.28116 -18.97034 -4.971959e-07 1.171653e-07 16.38491 -6.841116 8.034617 4.089617 5.464931 -19.55123 -1.08572 -95.0306 29.57187 23.55654 -2.354121e-07 1.809801e-06 -16.43081 4.130753 18.3432 8.879821
0.3110441 103.6213 1.435602 1.528722 -1.031663 -0.2905096 2.843301 -12.99859 9.290778 -2.420164e-06 36.62546 1.969853e-06 -5.299747 -17.75154 -3.453392 -7.539531 10.0223 -23.50434 -1.827651e-06 5.514088 -7.250028e-06 8.60835 -17.02389 27.73134 -4.480568 -4.539874 5.031502 2.449067 9.223262 -7.865108 1.202992 22.34608 6.766263 3.209305 -23.69911 8.876514 6.544257 -20.06897 11.55442 85.71894 36.0597 -19.36007 -4.33114e-07 1.073704e-07 16.41397 -6.85139 8.207643 4.123479 5.372245 -19.61204 -1.311048 -94.84143 29.6824 23.3662 -2.290799e-07 1.56587e-06 -16.86902 3.976657 17.93085 9.188011
0.6368908 103.7111 2.967225 1.189929 -0.6943908 -0.2279502 3.371987 -15.82099 8.939157 -2.207818e-06 36.77269 1.812036e-06 -5.331401 -16.54069 -3.398324 -7.345265 10.87881 -23.15965 -1.826084e-06 5.35961 -5.8284e-06 7.820255 -17.88994 26.49759 -4.156062 -4.030784 4.736071 2.50379 9.235919 -7.97486 1.119499 22.13274 7.047676 3.270118 -23.93912 9.086048 6.48052 -19.82973 11.60756 86.07762 35.84996 -19.80668 -3.790988e-07 9.325303e-08 16.27318 -7.021644 8.362033 4.257845 5.42666 -19.78212 -1.535415 -94.57469 29.68222 22.99449 -2.453617e-07 1.389569e-06 -17.61234 3.920973 17.43296 9.374628
0.9696019 103.7171 4.676263 0.882815 -0.149762 -0.06927079 3.887273 -18.53127 8.430168 -1.84204e-06 35.17162 1.532806e-06 -5.331276 -15.0524 -3.110742 -7.171206 11.59286 -22.73322 -1.699043e-06 5.248097 -4.237259e-06 6.975107 -18.81272 25.30759 -3.845703 -3.574693 4.492683 2.587311 9.21225 -8.039327 1.049561 21.87616 7.356317 3.429771 -24.29059 9.264915 6.365084 -19.54817 11.65886 86.33963 35.67663 -20.29055 -3.124754e-07 7.432338e-08 15.9417 -7.349035 8.454168 4.454539 5.658741 -20.04003 -1.695901 -94.25053 29.55056 22.46202 -2.280637e-07 1.157689e-06 -18.61758 3.981481 16.93561 9.385522
1.297343 103.5732 6.621515 0.6257763 0.4950433 0.1500533 4.360053 -21.24402 7.809545 -1.211384e-06 32.16752 1.034283e-06 -5.273579 -13.3421 -2.720453 -7.028654 12.28999 -22.23457 -1.31103e-06 5.298869 -2.105224e-06 6.07235 -19.83764 24.15908 -3.568653 -3.139896 4.286472 2.690047 9.156712 -8.072239 1.006566 21.60702 7.673353 3.656735 -24.68827 9.427209 6.189932 -19.19916 11.70047 86.60495 35.47737 -20.86637 -2.170161e-07 5.026464e-08 15.43094 -7.816977 8.520818 4.685022 6.041982 -20.37406 -1.819167 -93.85217 29.33068 21.69741 -1.513689e-07 7.850566e-07 -19.87627 4.096247 16.42171 9.287036
1.608349 103.2314 8.814279 0.4055977 1.176281 0.3825611 4.769991 -23.61281 7.139208 -5.150255e-07 28.00417 4.939407e-07 -5.2562 -11.61474 -2.254467 -6.886847 12.7621 -21.69181 -7.873088e-07 5.551602 1.233325e-07 5.157935 -20.76542 23.11007 -3.323085 -2.730462 4.120992 2.812491 9.083808 -8.066199 0.982569 21.32968 7.962294 3.920585 -25.09286 9.542767 5.990302 -18.83159 11.73594 86.72466 35.32791 -21.37313 -1.143967e-07 2.457864e-08 14.80048 -8.327064 8.556948 4.949179 6.507438 -20.72431 -1.88723 -93.4031 29.03575 20.85822 -4.313269e-08 3.592784e-07 -21.12694 4.255641 15.9301 9.096413
1.898702 102.7191 11.34996 0.1464477 1.909237 0.6215554 5.149924 -25.68745 6.448381 1.417653e-07 23.68551 -4.213256e-09 -5.300421 -9.923464 -1.796365 -6.692326 13.29592 -21.07202 -2.403791e-07 6.109743 2.307423e-06 4.047861 -21.45012 21.87242 -3.052778 -2.397416 3.930826 2.954474 8.961222 -8.076109 0.9646967 21.04647 8.208744 4.156547 -25.48412 9.632727 5.780555 -18.41968 11.71643 86.87646 35.22922 -21.88083 -1.135217e-08 -1.761518e-09 14.07265 -8.814067 8.630477 5.232064 6.937614 -21.03547 -1.889363 -92.94427 28.73927 20.02732 6.532375e-08 -7.904317e-08 -22.28906 4.397773 15.42445 8.932195
2.160054 102.0723 14.24609 -0.1281889 2.510312 0.8625564 5.464475 -27.26973 5.814425 5.932949e-07 19.84656 -3.328776e-07 -5.44514 -8.625447 -1.464959 -6.441884 13.78827 -20.4143 1.440331e-07 7.076576 3.873029e-06 2.8494 -21.78208 20.57501 -2.780082 -2.111598 3.710648 3.094881 8.812974 -8.107583 0.9463903 20.84108 8.377937 4.310317 -25.76626 9.684213 5.589715 -17.99217 11.65239 87.09629 35.19872 -22.3268 6.44944e-08 -2.386046e-08 13.29999 -9.211569 8.746256 5.501512 7.248801 -21.28161 -1.855601 -92.49665 28.52472 19.21225 1.409562e-07 -4.053624e-07 -23.21823 4.498874 14.95927 8.823235
2.403454 101.4231 17.61231 -0.4778074 3.003325 1.133543 5.762489 -28.19024 5.296189 9.073413e-07 17.4974 -5.779997e-07 -5.689145 -7.614401 -1.276709 -6.120702 14.33093 -19.69043 3.638839e-07 8.746712 4.973995e-06 1.431658 -21.52965 18.99338 -2.450099 -1.946251 3.448439 3.222298 8.643409 -8.183425 0.9185605 20.67922 8.455055 4.341172 -25.94379 9.701758 5.436955 -17.56704 11.51674 87.45099 35.2143 -22.71134 1.208395e-07 -3.94902e-08 12.56503 -9.480547 8.961575 5.75453 7.317206 -21.3819 -1.779069 -92.14659 28.40217 18.66169 1.852206e-07 -6.483865e-07 -23.73631 4.49187 14.49151 8.894364
2.641638 100.9316 21.48191 -0.8932013 3.307169 1.447943 6.056239 -28.24504 4.964941 8.862035e-07 16.94707 -5.896549e-07 -6.099975 -6.903894 -1.218768 -5.732038 14.74877 -18.93863 2.276186e-07 11.3179 4.891005e-06 -0.03900469 -20.53171 17.28671 -2.073107 -1.888991 3.156204 3.333947 8.52131 -8.301243 0.8609012 20.55418 8.436048 4.255352 -25.99246 9.648064 5.391795 -17.17785 11.35295 87.78071 35.37228 -22.94414 1.24209e-07 -4.136324e-08 11.86271 -9.56297 9.263096 5.97618 7.086719 -21.33008 -1.687918 -91.83119 28.35744 18.45695 1.633547e-07 -6.523915e-07 -23.68195 4.408546 14.04893 9.112258
2.885593 100.7377 25.84755 -1.359583 3.33829 1.800351 6.406731 -27.49906 4.860337 5.746586e-07 17.8285 -3.968836e-07 -6.646347 -6.487853 -1.315989 -5.263788 14.88567 -18.13406 -1.23444e-07 15.12584 3.676237e-06 -1.570828 -18.8037 15.5143 -1.623337 -1.852435 2.862632 3.426616 8.492529 -8.433319 0.7828081 20.47222 8.327188 4.064589 -25.90004 9.528563 5.438293 -16.84498 11.20763 88.10074 35.57147 -23.03882 8.017563e-08 -2.789905e-08 11.24339 -9.497364 9.676036 6.175871 6.581895 -21.14445 -1.625436 -91.61806 28.35085 18.63058 9.444602e-08 -4.448309e-07 -23.07215 4.212943 13.59156 9.513182
3.144266 100.9402 30.69619 -1.81201 3.140059 2.145878 6.816194 -25.78667 4.9035 4.620906e-08 19.07179 -2.859812e-08 -7.250172 -6.488858 -1.444922 -4.749972 14.34092 -17.19685 -4.037575e-07 20.50738 1.435305e-06 -3.120083 -16.38842 13.78991 -1.104366 -1.828463 2.689273 3.485484 8.570764 -8.518537 0.6904124 20.44943 8.14364 3.816929 -25.7011 9.33119 5.532187 -16.60655 11.12579 88.39085 35.74601 -23.02142 1.765953e-09 -5.338287e-10 10.75178 -9.403244 10.16483 6.362547 5.9009 -20.89283 -1.581306 -91.59729 28.31065 19.19082 1.102527e-08 -8.659095e-08 -22.16193 3.93545 13.1207 10.03004
3.391654 101.5586 35.79023 -2.115429 2.565554 2.399287 7.225235 -23.39267 5.073668 -7.886445e-07 19.87278 6.142891e-07 -7.905235 -7.1494 -1.615956 -4.25563 12.82972 -16.17081 -2.979039e-07 27.59166 -2.328598e-06 -4.401679 -13.59722 12.44954 -0.5994664 -1.663208 2.697521 3.493837 8.823912 -8.517083 0.5760186 20.55483 7.916639 3.562107 -25.33654 9.041257 5.694613 -16.43887 11.1952 88.49972 35.92607 -22.90953 -1.260817e-07 4.387463e-08 10.30193 -9.275607 10.63146 6.460552 5.146648 -20.70477 -1.632568 -91.55104 28.25251 19.78608 -8.843544e-08 4.857327e-07 -21.25019 3.673492 12.69999 10.48134
3.625225 102.532 40.97798 -2.090997 1.697232 2.508798 7.330667 -19.79277 5.075793 -1.127776e-06 20.0539 8.387493e-07 -8.36796 -8.244782 -1.699551 -3.936843 9.756475 -14.94859 5.625028e-07 35.2774 -4.931111e-06 -5.238559 -10.95761 11.78422 -0.3200736 -1.40124 3.033702 3.361462 9.168005 -8.320631 0.4796872 20.87541 7.674291 3.368612 -24.83158 8.685207 5.791692 -16.41529 11.3706 88.45454 36.08749 -22.48367 -1.949045e-07 8.316584e-08 10.06964 -9.612453 11.00962 6.679821 4.46747 -20.55193 -1.714723 -91.7173 28.17335 20.41228 -6.817105e-08 7.393143e-07 -20.46355 3.352202 12.30975 10.90065
3.837193 103.7195 46.05305 -1.726559 0.6496574 2.464072 7.097318 -15.42538 4.854145 -9.772377e-07 19.45274 6.631871e-07 -8.557321 -9.579777 -1.605861 -3.784385 5.253048 -13.63024 1.767731e-06 42.24607 -6.123553e-06 -5.534042 -8.911858 11.83362 -0.3230157 -1.020707 3.669171 3.080381 9.566907 -7.919175 0.3961147 21.34395 7.470917 3.280685 -24.22194 8.289029 5.801056 -16.54734 11.64368 88.02195 36.22919 -21.63521 -2.029252e-07 1.107634e-07 10.10965 -10.47918 11.21993 7.058901 3.967293 -20.45233 -1.84255 -91.90029 28.04928 20.91215 6.114536e-08 6.798033e-07 -19.93162 3.022806 11.95219 11.19612
4.025031 104.9529 50.92287 -1.138342 -0.3576933 2.282953 6.593865 -10.79496 4.441416 -5.70966e-07 18.08828 3.006024e-07 -8.425654 -10.97201 -1.326807 -3.713515 0.1516246 -12.3715 2.80936e-06 47.23893 -6.248015e-06 -5.415071 -7.600937 12.41568 -0.5672897 -0.6545281 4.466931 2.705381 9.908303 -7.389542 0.3338656 21.86074 7.316894 3.283683 -23.58402 7.896285 5.705178 -16.80021 11.9254 87.26281 36.30847 -20.46594 -1.752051e-07 1.244022e-07 10.39644 -11.77026 11.26778 7.587865 3.702191 -20.38427 -1.959512 -92.02255 27.87843 21.20681 2.401847e-07 4.512811e-07 -19.67943 2.71503 11.64844 11.35174
